<svg width="30" height="26" viewBox="0 0 30 26" fill="none" xmlns="http://www.w3.org/2000/svg">
<path d="M9.35738 25.0105C20.5857 25.0105 26.7272 15.7079 26.7272 7.6407C26.7272 7.37651 26.7272 7.11348 26.7094 6.85161C27.9041 5.98737 28.9355 4.91741 29.7551 3.69164C28.6409 4.18533 27.4589 4.50904 26.2487 4.65212C27.5228 3.88941 28.477 2.68886 28.9326 1.2755C27.7343 1.98654 26.4232 2.48773 25.0561 2.75732C23.9019 1.52987 22.2897 0.833008 20.6049 0.833008C17.2527 0.833008 14.4944 3.59139 14.4944 6.94349C14.4944 7.40853 14.5475 7.87211 14.6526 8.32506C9.74658 8.07918 5.1693 5.75863 2.07094 1.94679C0.45975 4.7204 1.29341 8.31484 3.96097 10.0961C2.98957 10.0673 2.03904 9.8052 1.1902 9.33197V9.40932C1.19102 12.3043 3.25022 14.8205 6.08787 15.3937C5.18918 15.6388 4.24602 15.6746 3.3314 15.4984C4.12915 17.9791 6.42959 19.689 9.03484 19.7379C6.87354 21.4365 4.20215 22.3591 1.45323 22.3564C0.967504 22.3554 0.482241 22.326 0 22.2683C2.79151 24.0597 6.04051 25.0102 9.35738 25.0057" fill="white"/>
</svg>
