<svg width="30" height="26" viewBox="0 0 30 26" fill="none" xmlns="http://www.w3.org/2000/svg">
<path d="M9.35738 25.01C20.5857 25.01 26.7272 15.7074 26.7272 7.64021C26.7272 7.37602 26.7272 7.11299 26.7094 6.85112C27.9041 5.98689 28.9355 4.91692 29.7551 3.69116C28.6409 4.18485 27.4589 4.50855 26.2487 4.65163C27.5228 3.88892 28.477 2.68838 28.9326 1.27501C27.7343 1.98605 26.4232 2.48724 25.0561 2.75683C23.9019 1.52938 22.2897 0.83252 20.6049 0.83252C17.2527 0.83252 14.4944 3.59091 14.4944 6.943C14.4944 7.40804 14.5475 7.87163 14.6526 8.32458C9.74658 8.07869 5.1693 5.75814 2.07094 1.9463C0.45975 4.71991 1.29341 8.31435 3.96097 10.0956C2.98957 10.0668 2.03904 9.80472 1.1902 9.33148V9.40883C1.19102 12.3038 3.25022 14.82 6.08787 15.3932C5.18918 15.6383 4.24602 15.6741 3.3314 15.4979C4.12915 17.9786 6.42959 19.6885 9.03484 19.7374C6.87354 21.436 4.20215 22.3586 1.45323 22.3559C0.967504 22.355 0.482241 22.3256 0 22.2678C2.79151 24.0592 6.04051 25.0097 9.35738 25.0052" fill="white"/>
</svg>
