<svg width="22" height="18" viewBox="0 0 22 18" fill="none" xmlns="http://www.w3.org/2000/svg">
<path d="M6.91857 18C15.2205 18 19.7613 11.0743 19.7613 5.06828C19.7613 4.87159 19.7613 4.67577 19.7481 4.48081C20.6314 3.83739 21.394 3.04081 22 2.12824C21.1762 2.49579 20.3023 2.73678 19.4075 2.8433C20.3496 2.27547 21.0551 1.38167 21.3919 0.329431C20.5059 0.858797 19.5365 1.23193 18.5258 1.43264C17.6723 0.518809 16.4804 0 15.2347 0C12.7561 0 10.7167 2.0536 10.7167 4.54922C10.7167 4.89543 10.756 5.24057 10.8337 5.57779C7.20633 5.39473 3.82203 3.6671 1.53119 0.829203C0.339926 2.89414 0.956312 5.57018 2.92862 6.8963C2.2104 6.87488 1.5076 6.67975 0.88 6.32743V6.38501C0.880602 8.54029 2.40311 10.4136 4.50119 10.8403C3.83672 11.0228 3.13938 11.0494 2.46314 10.9183C3.05297 12.7651 4.75385 14.0382 6.68009 14.0746C5.08209 15.3392 3.10694 16.0261 1.07448 16.024C0.715344 16.0233 0.356555 16.0014 0 15.9584C2.06396 17.2921 4.46617 17.9997 6.91857 17.9965" fill="#522D6E"/>
</svg>
