<svg width="81" height="46" viewBox="0 0 81 46" fill="none" xmlns="http://www.w3.org/2000/svg">
<g clip-path="url(#clip0_45_3794)">
<path d="M62.7832 30.0284C59.7527 30.0284 56.9837 27.7649 55.5576 24.1206C55.457 23.866 55.5863 23.5774 55.8451 23.4812C56.1039 23.3822 56.3943 23.5095 56.4949 23.7641C57.7658 27.0151 60.1753 29.0353 62.7803 29.0353C65.3854 29.0353 67.792 27.0151 69.0629 23.7641C69.1635 23.5095 69.4539 23.3822 69.7127 23.4784C69.9715 23.5774 70.1009 23.8632 70.0002 24.1178C68.5769 27.762 65.808 30.0255 62.7775 30.0255L62.7832 30.0284Z" fill="white"/>
<path d="M55.7543 24.4793C54.8371 24.4793 53.917 23.6503 53.5375 22.4111C53.3391 21.7631 53.3219 21.0982 53.4886 20.538C53.6755 19.9099 54.0867 19.46 54.6157 19.3044C54.8803 19.2252 55.162 19.3751 55.2425 19.6354C55.3231 19.8986 55.1707 20.173 54.9061 20.2522C54.6387 20.3315 54.5093 20.6399 54.4576 20.8153C54.3455 21.1888 54.3627 21.6669 54.5036 22.1253C54.794 23.0731 55.4668 23.5937 55.8895 23.4692C56.1569 23.39 56.4358 23.54 56.5163 23.8003C56.5968 24.0606 56.4444 24.3379 56.1799 24.4171C56.039 24.4595 55.8981 24.4793 55.7572 24.4793H55.7543Z" fill="white"/>
<path d="M69.8199 24.4794C69.679 24.4794 69.5353 24.4596 69.3973 24.4171C69.1298 24.3379 68.9803 24.0635 69.0608 23.8003C69.1413 23.5372 69.4203 23.3901 69.6877 23.4693C70.1103 23.5938 70.786 23.0732 71.0735 22.1253C71.2144 21.667 71.2288 21.1888 71.1196 20.8153C71.0678 20.6399 70.9384 20.3315 70.671 20.2523C70.4036 20.1731 70.2541 19.8986 70.3346 19.6355C70.4151 19.3752 70.694 19.2224 70.9614 19.3045C71.4905 19.4601 71.9016 19.9099 72.0885 20.5381C72.2553 21.0983 72.238 21.7632 72.0396 22.4111C71.6601 23.6532 70.74 24.4794 69.8228 24.4794H69.8199Z" fill="white"/>
<path d="M54.7692 20.2812C54.7519 20.2812 54.7318 20.2812 54.7146 20.2812C54.4385 20.2529 54.2373 20.0067 54.2689 19.7351L54.404 18.5043C54.6484 16.2691 55.8963 14.2942 57.8256 13.0917C57.9694 13.0012 58.1534 12.9899 58.3087 13.0606C61.5376 14.5517 65.218 14.9054 68.677 14.0537L68.7115 14.0452C68.8754 14.0056 69.0537 14.0481 69.1773 14.1641C69.301 14.2801 69.3585 14.447 69.3297 14.6139C69.0105 16.3512 69.6575 18.145 71.0146 19.2966L71.1411 19.4041C71.351 19.5823 71.374 19.8964 71.1929 20.1029C71.0118 20.3095 70.6926 20.3349 70.4827 20.1539L70.3562 20.0463C68.9185 18.8269 68.1451 17.0048 68.2486 15.1628C64.8557 15.8504 61.3019 15.4684 58.1362 14.0707C56.595 15.1232 55.603 16.7614 55.4018 18.609L55.2666 19.8398C55.2379 20.0944 55.0193 20.2812 54.7663 20.2812H54.7692Z" fill="white"/>
<path d="M53.7976 21.4866C53.582 21.4866 53.3807 21.348 53.3146 21.133C52.7452 19.2543 52.659 17.2963 53.0615 15.4742C53.119 15.2083 54.5653 8.94119 60.0313 7.60573C62.9899 6.88141 66.3282 7.80944 68.3409 9.91167C68.7837 10.3757 69.1718 10.902 69.491 11.4763C69.5255 11.499 69.5686 11.5272 69.6175 11.5612C71.3916 12.7807 72.4065 14.9055 72.2714 17.1039C72.2426 17.5482 72.1938 18.0914 72.1478 18.6177C72.0845 19.3363 72.0184 20.0776 72.0184 20.4426C72.0184 20.7171 71.7941 20.9377 71.5152 20.9377C71.2363 20.9377 71.012 20.7171 71.012 20.4426C71.012 20.0323 71.0781 19.3024 71.1472 18.5299C71.1932 18.0093 71.242 17.4718 71.2679 17.0417C71.3829 15.1828 70.5318 13.3946 69.0424 12.3704C68.9792 12.328 68.9332 12.294 68.9015 12.2799C68.798 12.2346 68.7233 12.161 68.6715 12.062C68.3811 11.5159 68.0246 11.0208 67.6105 10.5879C65.8394 8.73748 62.8922 7.92545 60.2757 8.56489C55.4078 9.75605 54.0995 15.4431 54.0449 15.6836C53.6768 17.3444 53.7602 19.1298 54.2807 20.85C54.3612 21.1132 54.2088 21.3876 53.9414 21.4668C53.8925 21.481 53.8465 21.4866 53.7976 21.4866Z" fill="white"/>
<path d="M45.0735 46.0001C44.7946 46.0001 44.5703 45.7794 44.5703 45.505V41.558C44.5703 37.3337 47.9258 33.8027 52.2071 33.5197L54.0128 33.4009C55.2233 33.3217 56.3993 32.9284 57.4085 32.2663L58.9008 31.2845V28.7041C58.9008 28.4297 59.1251 28.209 59.404 28.209C59.6829 28.209 59.9071 28.4297 59.9071 28.7041V31.5505C59.9071 31.7146 59.8238 31.8702 59.6829 31.9636L57.9663 33.0897C56.8105 33.8479 55.4648 34.2978 54.0789 34.3883L52.2732 34.5072C48.5181 34.7562 45.5767 37.8515 45.5767 41.558V45.505C45.5767 45.7794 45.3524 46.0001 45.0735 46.0001Z" fill="white"/>
<path d="M80.5006 46.0001C80.2217 46.0001 79.9974 45.7794 79.9974 45.505V41.558C79.9974 37.8515 77.056 34.7562 73.298 34.5072L71.4894 34.3883C70.1035 34.2978 68.7608 33.8479 67.6049 33.0897L65.8883 31.9636C65.7474 31.8702 65.6641 31.7174 65.6641 31.5505V28.7041C65.6641 28.4297 65.8883 28.209 66.1672 28.209C66.4461 28.209 66.6704 28.4297 66.6704 28.7041V31.2845L68.1627 32.2635C69.1719 32.9284 70.3479 33.3188 71.5555 33.3981L73.3641 33.5169C77.6483 33.7998 81.0009 37.3309 81.0009 41.5552V45.5021C81.0009 45.7766 80.7766 45.9973 80.4977 45.9973L80.5006 46.0001Z" fill="white"/>
<path d="M56.2379 40.2874C56.0941 40.2874 55.9532 40.228 55.8526 40.112C55.6743 39.9026 55.7002 39.5914 55.913 39.4131L65.8385 31.174C66.0513 30.9985 66.3676 31.024 66.5487 31.2334C66.727 31.4428 66.7011 31.754 66.4883 31.9322L56.5628 40.1714C56.4679 40.2506 56.3529 40.2874 56.2379 40.2874Z" fill="white"/>
<path d="M68.994 40.0271C68.8789 40.0271 68.7639 39.9875 68.669 39.9111L59.0771 31.9322C58.8643 31.7568 58.8384 31.4428 59.0167 31.2334C59.1949 31.024 59.5141 30.9985 59.7269 31.174L69.3189 39.1528C69.5316 39.3282 69.5575 39.6423 69.3792 39.8517C69.2786 39.9677 69.1377 40.0271 68.994 40.0271Z" fill="white"/>
<path d="M59.9012 46.0003C59.8667 46.0003 59.8322 45.9974 59.7977 45.989C59.5245 45.9324 59.352 45.6721 59.4095 45.4033L60.8299 38.7033C60.8874 38.4345 61.1548 38.2648 61.4251 38.3185C61.6982 38.3751 61.8707 38.6354 61.8132 38.9042L60.3928 45.6042C60.344 45.839 60.1341 45.9975 59.9012 45.9975V46.0003Z" fill="white"/>
<path d="M65.4823 46.0001C65.2437 46.0001 65.0309 45.8332 64.9878 45.5927L63.7658 38.8928C63.7169 38.624 63.898 38.3665 64.1712 38.3184C64.4443 38.2703 64.706 38.4485 64.7549 38.7173L65.9769 45.4173C66.0258 45.6861 65.8446 45.9436 65.5715 45.9917C65.5427 45.9973 65.5111 46.0001 65.4823 46.0001Z" fill="white"/>
<path d="M58.6609 45.9996C58.4711 45.9996 58.2871 45.8921 58.2037 45.711L52.8499 34.153C52.7349 33.904 52.847 33.6098 53.1 33.4966C53.3531 33.3834 53.6521 33.4938 53.7671 33.7428L59.1209 45.3008C59.2359 45.5498 59.1238 45.844 58.8707 45.9572C58.8017 45.9883 58.7327 46.0025 58.6637 46.0025L58.6609 45.9996Z" fill="white"/>
<path d="M66.4242 45.9995C66.3552 45.9995 66.2833 45.9854 66.2172 45.9543C65.9642 45.8411 65.852 45.5468 65.9671 45.2978L71.318 33.7398C71.433 33.4909 71.732 33.3805 71.9851 33.4937C72.2381 33.6069 72.3502 33.9011 72.2352 34.1501L66.8843 45.7081C66.8009 45.8892 66.6169 45.9967 66.4271 45.9967L66.4242 45.9995Z" fill="white"/>
<path d="M64.2603 39.3002H61.3218C61.0745 39.3002 60.8617 39.1219 60.8244 38.8815L60.3729 36.0266C60.3701 36.0011 60.3672 35.9757 60.3672 35.9502C60.3672 35.6758 60.5915 35.4551 60.8704 35.4551C61.1291 35.4551 61.3419 35.6446 61.3707 35.8936L61.7531 38.3127H63.8319L64.2143 35.8908C64.2575 35.622 64.5134 35.4381 64.7894 35.4777C65.0654 35.5202 65.2523 35.772 65.2092 36.0436L64.7606 38.8843C64.7233 39.1248 64.5105 39.303 64.2632 39.303L64.2603 39.3002Z" fill="white"/>
<path d="M49.7421 25.1022C49.676 25.1022 49.6098 25.0909 49.5466 25.0626C49.2907 24.9551 49.1699 24.6665 49.2792 24.4147L49.952 22.85C50.0009 22.7369 50.0469 22.6209 50.09 22.5077C50.7111 20.8836 50.7887 19.0785 50.3172 17.2847L50.0124 16.1303C49.8772 15.6125 49.6903 15.106 49.4632 14.6222L49.0118 13.6631C48.5115 12.5992 48.408 11.3882 48.7242 10.2565C49.3338 8.05806 48.8939 5.74646 47.5137 3.91303C46.1652 2.12203 44.1065 1.05819 41.8638 0.993111C41.789 0.993111 41.7143 0.990282 41.6395 0.990282H37.3841C37.3093 0.990282 37.2346 0.990282 37.1598 0.993111C34.9171 1.05819 32.8583 2.12203 31.5098 3.91303C30.1297 5.74646 29.6869 8.05806 30.2993 10.2565C30.6127 11.3882 30.5121 12.5992 30.0118 13.6631L29.1981 15.3918C28.0911 17.743 28.0451 20.462 29.0716 22.85L29.7444 24.4147C29.8537 24.6665 29.7329 24.9579 29.477 25.0626C29.2211 25.1701 28.9249 25.0513 28.8186 24.7995L28.1457 23.2348C27.01 20.5922 27.0589 17.5817 28.2838 14.9759L29.0975 13.2471C29.5 12.3927 29.5805 11.425 29.3304 10.5168C28.6374 8.02411 29.1377 5.40128 30.7048 3.32169C32.2373 1.28737 34.5807 0.0763932 37.131 0.00282938C37.2144 0.00282938 37.3007 0 37.3841 0H41.6395C41.7229 0 41.8092 0 41.8925 0.00282938C44.4458 0.0763932 46.7892 1.28454 48.3217 3.32169C49.8859 5.40128 50.389 8.02411 49.6961 10.5168C49.4431 11.425 49.5264 12.3927 49.929 13.2471L50.3804 14.2063C50.6334 14.7439 50.8376 15.3069 50.99 15.8813L51.2948 17.0357C51.8209 19.0276 51.7318 21.0421 51.036 22.8585C50.9871 22.9859 50.9353 23.1132 50.8807 23.2377L50.2079 24.8023C50.1274 24.9919 49.9405 25.1051 49.745 25.1051L49.7421 25.1022Z" fill="white"/>
<path d="M55.7327 34.0825C55.4538 34.0825 55.2295 33.8618 55.2295 33.5873V31.4229C55.2295 27.9965 52.3974 25.2067 48.9125 25.2067H43.9871C43.044 25.2067 42.2734 24.4513 42.2734 23.5204V22.0576C42.2734 21.7832 42.4977 21.5625 42.7766 21.5625C43.0555 21.5625 43.2798 21.7832 43.2798 22.0576V23.5204C43.2798 23.9024 43.5961 24.2165 43.9871 24.2165H48.9125C52.9494 24.2165 56.2359 27.4476 56.2359 31.4229V33.5873C56.2359 33.8618 56.0116 34.0825 55.7327 34.0825Z" fill="white"/>
<path d="M23.3597 33.6015C23.0808 33.6015 22.8565 33.378 22.8594 33.1035L22.8709 30.8457C22.8709 30.8457 22.8709 30.8202 22.8709 30.8061C23.1901 27.1109 26.3931 24.2165 30.1684 24.2165H35.0938C35.482 24.2165 35.8011 23.9052 35.8011 23.5204V22.0576C35.8011 21.7832 36.0254 21.5625 36.3043 21.5625C36.5832 21.5625 36.8075 21.7832 36.8075 22.0576V23.5204C36.8075 24.4513 36.0398 25.2067 35.0938 25.2067H30.1684C26.9193 25.2067 24.1619 27.6938 23.8773 30.8711L23.8658 33.1092C23.8658 33.3808 23.6386 33.6015 23.3626 33.6015H23.3597Z" fill="white"/>
<path d="M40.7296 22.5531H38.3517C34.7404 22.5531 31.8047 19.6615 31.8047 16.1107V11.0206C31.8047 10.9131 31.8076 10.8084 31.8133 10.7037C31.8248 10.5028 31.96 10.3302 32.1526 10.268C32.236 10.2397 40.5887 7.41598 42.9378 5.92207C43.073 5.83436 43.2455 5.81738 43.395 5.8768C43.5474 5.93621 43.6595 6.06354 43.6998 6.21632L43.8206 6.69449C44.157 8.01298 45.2553 8.98062 46.624 9.1617C46.8166 9.18717 46.9776 9.32015 47.0351 9.50123C47.1962 9.99071 47.2767 10.5028 47.2767 11.0206V16.1107C47.2767 19.6643 44.3381 22.5531 40.7296 22.5531ZM32.8082 11.0913V16.1078C32.8082 19.1154 35.2953 21.56 38.3489 21.56H40.7267C43.7832 21.56 46.2674 19.1126 46.2674 16.1078V11.0178C46.2674 10.7009 46.2301 10.3897 46.1553 10.0841C44.5854 9.75587 43.3346 8.61846 42.8832 7.09343C40.2379 8.51378 34.2918 10.5792 32.8053 11.0885L32.8082 11.0913Z" fill="white"/>
<path d="M38.8839 39.043C38.651 39.043 38.4411 38.8818 38.3922 38.6498L35.3703 24.5396C35.3128 24.2709 35.4882 24.0106 35.7585 23.954C36.0287 23.8946 36.2961 24.07 36.3537 24.3359L39.3756 38.446C39.4331 38.7148 39.2577 38.9751 38.9874 39.0317C38.9529 39.0402 38.9184 39.043 38.8839 39.043Z" fill="white"/>
<path d="M39.9402 39.0372C39.9057 39.0372 39.8712 39.0343 39.8367 39.0258C39.5636 38.9692 39.391 38.7061 39.4485 38.4402L42.528 24.1292C42.5855 23.8604 42.8529 23.6906 43.1232 23.7472C43.3963 23.8038 43.5689 24.0669 43.5113 24.3329L40.4319 38.6439C40.383 38.8759 40.1731 39.0372 39.9402 39.0372Z" fill="white"/>
<path d="M39.4059 39.2778C39.0608 39.2778 38.7302 39.1307 38.503 38.876C38.4829 38.8534 38.4657 38.8307 38.4513 38.8053L36.5593 35.693C35.4725 33.9048 33.0975 33.2993 31.263 34.3377C31.0905 34.4367 30.872 34.4254 30.711 34.3066C30.55 34.1877 30.4752 33.9897 30.5212 33.7973L32.6863 24.7178C32.7496 24.4519 33.0198 24.2877 33.2901 24.35C33.5604 24.4122 33.7272 24.6782 33.6639 24.9442L31.726 33.0616C33.8422 32.4052 36.2344 33.2399 37.4162 35.1837L39.2765 38.2451C39.3225 38.2818 39.3714 38.2875 39.3972 38.2875C39.426 38.2875 39.4749 38.2818 39.5209 38.2422L41.3812 35.1808C42.5629 33.2371 44.9552 32.4024 47.0743 33.0588L45.1363 24.9413C45.0731 24.6754 45.2399 24.4094 45.5101 24.3472C45.7804 24.2849 46.0507 24.449 46.1139 24.715L48.279 33.7945C48.325 33.9812 48.2532 34.1764 48.1008 34.2953C47.9484 34.4141 47.7385 34.4367 47.5631 34.349C47.5545 34.3434 47.543 34.3377 47.5343 34.3349C45.6999 33.2937 43.3249 33.902 42.2409 35.6901L40.3518 38.7996C40.3346 38.8279 40.3145 38.8562 40.2915 38.8788C40.0643 39.1307 39.7394 39.275 39.3972 39.275L39.4059 39.2778Z" fill="white"/>
<path d="M8.44726 22.5017C8.40988 22.5017 8.3725 22.4989 8.33224 22.4904C6.9406 22.1735 5.96875 20.9653 5.96875 19.5563V18.6368C5.96875 18.1501 6.15277 17.6861 6.48918 17.3296C6.85434 16.9363 7.38052 16.71 7.92395 16.71H8.40988C8.68878 16.71 8.91305 16.9307 8.91305 17.2051C8.91305 17.4796 8.68878 17.7002 8.40988 17.7002H7.92395C7.65942 17.7002 7.4064 17.8106 7.22813 18.0002C7.06424 18.1756 6.9751 18.3991 6.9751 18.6368V19.5563C6.9751 20.5013 7.6278 21.3105 8.55939 21.5256C8.82967 21.5878 8.99931 21.8538 8.93606 22.1197C8.88143 22.3489 8.6744 22.5017 8.44726 22.5017Z" fill="white"/>
<path d="M23.0723 22.5045C22.8423 22.5045 22.6353 22.3489 22.5835 22.1197C22.5203 21.8538 22.6899 21.5878 22.9631 21.5256C23.9004 21.3134 24.556 20.5042 24.556 19.5535V18.6339C24.556 18.119 24.1305 17.7002 23.6071 17.7002H23.0752C22.7963 17.7002 22.572 17.4796 22.572 17.2051C22.572 16.9307 22.7963 16.71 23.0752 16.71H23.6071C24.6854 16.71 25.5624 17.5729 25.5624 18.6339V19.5535C25.5624 20.9682 24.5847 22.1763 23.1874 22.4904C23.15 22.4989 23.1126 22.5017 23.0752 22.5017L23.0723 22.5045Z" fill="white"/>
<path d="M6.8547 18.1645C6.66781 18.1645 6.48666 18.0598 6.4004 17.8844L6.23939 17.5562C5.78796 16.6338 5.54932 15.6945 5.52344 14.7608C5.52344 14.7014 5.52344 14.6448 5.52344 14.5854C5.52344 11.7334 7.30612 9.16995 9.98877 8.12591L10.1325 7.57418C10.3712 6.65746 10.8715 5.83411 11.5759 5.19467C12.2804 4.55241 13.1516 4.128 14.1004 3.9639C16.6796 3.52534 19.2932 4.08839 21.4238 5.51156C24.9719 7.88258 26.5792 12.203 25.4291 16.2689L25.0553 17.5902C24.9806 17.8533 24.7045 18.0061 24.4371 17.9354C24.1697 17.8618 24.0116 17.5902 24.0864 17.3242L24.4601 16.0029C25.4953 12.3473 24.0461 8.4626 20.8574 6.33208C18.9425 5.05321 16.5933 4.54392 14.273 4.94003C13.5196 5.07018 12.8238 5.40971 12.2603 5.92182C11.6967 6.43394 11.2999 7.09036 11.1073 7.82034L10.8974 8.62105C10.8542 8.78232 10.7364 8.90965 10.5782 8.96623C8.15721 9.80373 6.52979 12.0616 6.52979 14.5854C6.52979 14.6363 6.52979 14.6844 6.52979 14.7353C6.54992 15.5276 6.75694 16.3339 7.14511 17.129L7.30612 17.4572C7.42688 17.7033 7.3205 18.0004 7.07035 18.1164C7.00134 18.1504 6.92658 18.1645 6.85183 18.1645H6.8547Z" fill="white"/>
<path d="M15.7591 30.8031C13.8959 30.8031 12.1304 30.008 10.9142 28.6188L9.49953 27.0032C8.49893 25.8601 7.94974 24.403 7.94974 22.895L7.89224 15.8017C7.74272 13.9909 8.26603 12.1886 9.36727 10.7286L10.3477 9.42995C10.4541 9.28849 10.6295 9.21492 10.8078 9.2319C10.9861 9.2517 11.1384 9.36205 11.2132 9.52332L11.6359 10.4598C11.9378 11.1332 12.3662 11.7359 12.9096 12.248C13.4502 12.7573 14.0799 13.1562 14.7757 13.4279C15.7734 13.8183 16.8632 13.923 17.9213 13.7334L19.9484 13.3684C20.1353 13.3345 20.3221 13.3175 20.5004 13.3175C21.5787 13.3175 22.5908 13.8862 23.1399 14.8001C23.4188 15.2641 23.5684 15.7961 23.5684 16.3365V22.8978C23.5684 24.4058 23.0163 25.863 22.0186 27.006L20.6039 28.6216C19.3877 30.0108 17.6222 30.8059 15.7591 30.8059V30.8031ZM10.6439 10.7032L10.1781 11.3228C9.21775 12.5932 8.76345 14.1635 8.89859 15.7423C8.89859 15.7536 8.89859 15.7678 8.89859 15.7791L8.9561 22.895C8.9561 24.1682 9.41902 25.399 10.2615 26.3609L11.6761 27.9765C12.6997 29.1479 14.1891 29.8184 15.7591 29.8184C17.329 29.8184 18.8155 29.1479 19.842 27.9765L21.2566 26.3609C22.0991 25.399 22.562 24.1682 22.562 22.9006V16.3393C22.562 15.9743 22.4614 15.6178 22.2745 15.3066C21.9036 14.6898 21.225 14.3106 20.5004 14.3106C20.3797 14.3106 20.2531 14.3219 20.1266 14.3446L18.0995 14.7096C16.8545 14.9331 15.5779 14.8086 14.4019 14.3531C13.5825 14.0362 12.8464 13.5693 12.2081 12.9667C11.5726 12.364 11.0694 11.6567 10.7129 10.8673L10.641 10.7088L10.6439 10.7032Z" fill="white"/>
<path d="M10.7595 10.3665C10.5324 10.3665 10.3282 10.2138 10.2707 9.99024L9.92855 8.61799C9.86242 8.35203 10.0292 8.08324 10.2966 8.01816C10.5669 7.95309 10.84 8.11719 10.9062 8.38032L11.2483 9.75257C11.3144 10.0185 11.1477 10.2873 10.8803 10.3524C10.84 10.3609 10.7998 10.3665 10.7595 10.3665Z" fill="white"/>
<path d="M0.503622 46.0005C0.503622 46.0005 0.489246 46.0005 0.48062 46.0005C0.201716 45.9892 -0.0110561 45.7571 0.000445056 45.4827L0.299476 38.9893C0.414488 36.4938 2.05341 34.301 4.3824 33.5342C4.48878 33.5003 4.59805 33.4663 4.71018 33.438L9.30778 32.1846C9.46017 32.1422 9.60394 32.0856 9.74483 32.0092C9.9806 31.8847 10.1876 31.7121 10.3544 31.5056L11.6138 28.9139C11.7345 28.6677 12.0336 28.563 12.2837 28.6819C12.5339 28.8007 12.6403 29.0949 12.5195 29.3411L11.2371 31.9809C11.2227 32.012 11.2055 32.0403 11.1854 32.0658C10.9295 32.3968 10.5988 32.6769 10.2279 32.875C10.0237 32.9853 9.80233 33.0759 9.57519 33.1381L4.97471 34.3944C4.87982 34.4198 4.79069 34.4453 4.70156 34.4736C2.76648 35.1102 1.40071 36.9436 1.30583 39.0317L1.0068 45.5251C0.995298 45.7911 0.771025 45.9976 0.503622 45.9976V46.0005Z" fill="white"/>
<path d="M30.6652 45.9999C30.3978 45.9999 30.1764 45.7934 30.162 45.5274L29.8658 39.034C29.7681 36.9431 28.4023 35.1096 26.4672 34.4758C26.3781 34.4476 26.2918 34.4193 26.1998 34.3966L21.5936 33.1404C20.9582 32.9678 20.386 32.5858 19.9834 32.068C19.9691 32.0482 19.9547 32.0256 19.9403 32.003L18.6464 29.6461C18.5142 29.4056 18.6062 29.1057 18.8506 28.9755C19.095 28.8454 19.3998 28.9359 19.532 29.1764L20.8058 31.4965C21.0732 31.8304 21.447 32.0737 21.861 32.1869L26.4644 33.4431C26.5707 33.4714 26.6771 33.5025 26.7835 33.5393C29.1096 34.3033 30.7514 36.496 30.8693 38.9944L31.1655 45.4878C31.177 45.7622 30.9642 45.9914 30.6853 46.0056C30.6767 46.0056 30.6709 46.0056 30.6623 46.0056L30.6652 45.9999Z" fill="white"/>
<path d="M6.08747 46.0002C5.84595 46.0002 5.63318 45.8304 5.59292 45.5899C5.31977 44.0253 4.91723 42.4578 4.39392 40.9328C4.30479 40.6724 4.44568 40.3923 4.71021 40.3046C4.97473 40.2169 5.25939 40.3556 5.34852 40.6159C5.88908 42.1918 6.306 43.8074 6.5849 45.423C6.6309 45.6918 6.44689 45.9492 6.17373 45.9945C6.14498 46.0002 6.11623 46.003 6.08747 46.003V46.0002Z" fill="white"/>
<path d="M13.1735 45.9999C12.9463 45.9999 12.7393 45.8471 12.6847 45.6207L9.49885 32.5547C9.43272 32.2887 9.59949 32.0228 9.86977 31.9577C10.14 31.8954 10.4103 32.0567 10.4765 32.3227L13.6623 45.3859C13.7284 45.6519 13.5616 45.9178 13.2914 45.9829C13.2511 45.9914 13.2137 45.997 13.1735 45.997V45.9999Z" fill="white"/>
<path d="M25.0904 46.0001C25.0617 46.0001 25.0329 46.0001 25.0042 45.9916C24.731 45.9463 24.547 45.6888 24.593 45.42C24.8748 43.7988 25.2917 42.1832 25.8322 40.6129C25.9214 40.3526 26.206 40.214 26.4706 40.3017C26.7351 40.3894 26.876 40.6695 26.7868 40.9298C26.2635 42.452 25.8581 44.0167 25.585 45.587C25.5418 45.8275 25.3291 45.9972 25.0904 45.9972V46.0001Z" fill="white"/>
<path d="M17.2468 46.0002C17.2008 46.0002 17.1519 45.9945 17.103 45.9804C16.8356 45.904 16.6832 45.6267 16.7637 45.3664L20.6827 32.3004C20.7604 32.0372 21.0422 31.8873 21.3067 31.9665C21.5741 32.0429 21.7265 32.3202 21.646 32.5805L17.7269 45.6465C17.6637 45.8616 17.4624 46.0002 17.2439 46.0002H17.2468Z" fill="white"/>
<path d="M15.5483 34.2662C12.8915 34.2662 10.2031 33.5051 10.2031 32.0508C10.2031 31.7764 10.4274 31.5557 10.7063 31.5557C10.9852 31.5557 11.2095 31.7764 11.2095 32.0508C11.2095 32.4809 12.857 33.2759 15.5483 33.2759C18.2396 33.2759 19.8871 32.4837 19.8871 32.0508C19.8871 31.7764 20.1114 31.5557 20.3903 31.5557C20.6692 31.5557 20.8935 31.7764 20.8935 32.0508C20.8935 33.5051 18.2051 34.2662 15.5483 34.2662Z" fill="white"/>
<path d="M13.072 41.2328C13.0403 41.2328 13.0058 41.23 12.9742 41.2244C12.701 41.1706 12.5256 40.9103 12.5803 40.6415L13.9949 33.6756C14.0496 33.4068 14.3141 33.2314 14.5872 33.288C14.8604 33.3417 15.0358 33.602 14.9812 33.8708L13.5665 40.8367C13.5176 41.0716 13.3077 41.2357 13.0748 41.2357L13.072 41.2328Z" fill="white"/>
<path d="M17.628 41.266C17.3923 41.266 17.1824 41.1047 17.1364 40.867L15.7131 33.87C15.6585 33.6012 15.8339 33.3409 16.107 33.2871C16.3802 33.2334 16.6447 33.406 16.6993 33.6748L18.1226 40.6718C18.1772 40.9406 18.0018 41.2009 17.7287 41.2547C17.6942 41.2603 17.6625 41.2632 17.628 41.2632V41.266Z" fill="white"/>
<path d="M15.3862 43.6378C15.251 43.6378 15.1217 43.5841 15.0268 43.4879L11.332 39.7786C11.1365 39.5833 11.1394 39.2693 11.3406 39.0797C11.539 38.8873 11.8582 38.8901 12.0508 39.0882L15.3862 42.4382L18.6784 39.1306C18.8739 38.9354 19.1902 38.9326 19.3886 39.1222C19.587 39.3145 19.5899 39.6258 19.3972 39.821L15.7456 43.4907C15.6507 43.5869 15.5213 43.6407 15.3862 43.6407V43.6378Z" fill="white"/>
</g>
<defs>
<clipPath id="clip0_45_3794">
<rect width="81" height="46" fill="white"/>
</clipPath>
</defs>
</svg>
