<svg width="58" height="61" viewBox="0 0 58 61" fill="none" xmlns="http://www.w3.org/2000/svg">
<g clip-path="url(#clip0_45_3785)">
<path d="M57.539 61.0004C57.3203 61.0004 57.128 60.8448 57.0858 60.6233L54.4063 46.2481C53.6449 42.1764 50.5439 38.959 46.5023 38.0519L34.4196 35.3409C34.0007 35.2459 33.6766 34.9268 33.5897 34.526C33.5818 34.4864 33.5739 34.4442 33.5712 34.4047L33.1813 29.9611C33.1602 29.7079 33.3473 29.4837 33.6002 29.46C33.8558 29.4363 34.0771 29.6262 34.1008 29.8793L34.4907 34.3282C34.5013 34.3757 34.5566 34.4231 34.6225 34.4363L46.7052 37.1473C51.1051 38.1362 54.4854 41.641 55.3127 46.0741L57.9922 60.4492C58.0396 60.6997 57.8736 60.9397 57.6233 60.9872C57.5943 60.9925 57.5653 60.9951 57.539 60.9951V61.0004Z" fill="white"/>
<path d="M34.047 61.0004C33.7914 61.0004 33.5859 60.7947 33.5859 60.5389V34.65C33.5859 34.3942 33.7914 34.1885 34.047 34.1885C34.3026 34.1885 34.5081 34.3942 34.5081 34.65V60.5389C34.5081 60.7947 34.3026 61.0004 34.047 61.0004Z" fill="white"/>
<path d="M39.8355 47.7112C39.7275 47.7112 39.6221 47.6743 39.5352 47.6005L33.7468 42.6321C33.5544 42.466 33.5307 42.1759 33.6967 41.9807C33.8627 41.7882 34.1525 41.7645 34.3475 41.9306L39.1584 46.0604L37.3457 35.7069C37.301 35.4564 37.4696 35.2164 37.7199 35.1716C37.9728 35.1294 38.2099 35.2955 38.2547 35.5461L40.2887 47.168C40.3229 47.3605 40.2307 47.553 40.0621 47.648C39.991 47.6875 39.9119 47.7086 39.8329 47.7086L39.8355 47.7112Z" fill="white"/>
<path d="M0.461257 61C0.432275 61 0.405928 61 0.376947 60.9921C0.126652 60.9446 -0.0393336 60.7046 0.00809073 60.4541L2.68757 46.079C3.51749 41.6433 6.89516 38.1411 11.2951 37.1522L23.3778 34.4412C23.4436 34.4254 23.499 34.3805 23.5095 34.3331L23.8994 29.8842C23.9205 29.631 24.1471 29.4412 24.4 29.4649C24.653 29.486 24.84 29.7101 24.8189 29.966L24.429 34.4148C24.429 34.4491 24.4211 34.4887 24.4106 34.5309C24.3236 34.9317 23.9969 35.2508 23.5806 35.3457L11.498 38.0567C7.45899 38.9639 4.35532 42.1812 3.5939 46.253L0.914423 60.6281C0.872268 60.8497 0.679936 61.0053 0.461257 61.0053V61Z" fill="white"/>
<path d="M23.9454 61.0004C23.6899 61.0004 23.4844 60.7947 23.4844 60.5389V34.65C23.4844 34.3942 23.6899 34.1885 23.9454 34.1885C24.201 34.1885 24.4065 34.3942 24.4065 34.65V60.5389C24.4065 60.7947 24.201 61.0004 23.9454 61.0004Z" fill="white"/>
<path d="M18.1652 47.7115C18.0862 47.7115 18.0071 47.6904 17.936 47.6509C17.7674 47.5533 17.6778 47.3634 17.7094 47.1709L19.7434 35.549C19.7882 35.2985 20.0253 35.1323 20.2782 35.1745C20.5285 35.2193 20.6971 35.4567 20.6524 35.7099L18.8397 46.0633L23.6506 41.9335C23.843 41.7674 24.1354 41.7911 24.3014 41.9836C24.4674 42.1762 24.4437 42.4689 24.2513 42.635L18.4656 47.6034C18.3813 47.6773 18.2732 47.7142 18.1652 47.7142V47.7115Z" fill="white"/>
<path d="M28.9998 39.9082C26.9764 39.9082 25.0979 39.4388 23.712 38.5896C23.496 38.4577 23.4275 38.1729 23.5592 37.954C23.6909 37.7352 23.9755 37.6692 24.1942 37.8011C25.4193 38.5527 27.1714 38.9852 28.9998 38.9852C30.8283 38.9852 32.5804 38.5527 33.8108 37.8011C34.0268 37.6692 34.3114 37.7378 34.4457 37.954C34.5775 38.1703 34.509 38.4551 34.2929 38.5896C32.9018 39.4388 31.0233 39.9082 29.0025 39.9082H28.9998Z" fill="white"/>
<path d="M38.8193 32.7244C38.569 32.7244 38.3187 32.6638 38.0869 32.5425L29.5189 28.0329C29.3292 27.9327 29.1052 27.9327 28.9155 28.0329L20.3475 32.5425C19.8153 32.8246 19.1804 32.7772 18.6929 32.4238C18.2055 32.0704 17.9658 31.4797 18.0685 30.8863L19.7047 21.3372C19.7416 21.1262 19.6704 20.9126 19.5176 20.7623L12.5857 13.998C12.1537 13.5761 12.0008 12.959 12.1879 12.3867C12.375 11.8144 12.8598 11.4031 13.4552 11.316L23.0349 9.92361C23.2457 9.89196 23.4301 9.76011 23.5223 9.56759L27.8063 0.875535C28.0724 0.334918 28.6125 0 29.2159 0C29.8192 0 30.3593 0.334918 30.6254 0.875535L34.9094 9.56496C35.0043 9.75747 35.1861 9.88933 35.3969 9.92097L44.9766 11.3134C45.572 11.4004 46.0594 11.8092 46.2439 12.3841C46.4309 12.9563 46.2781 13.5761 45.846 13.9954L38.9142 20.7597C38.7614 20.91 38.6902 21.1236 38.7271 21.3346L40.3632 30.8837C40.466 31.4771 40.2262 32.0678 39.7388 32.4212C39.4622 32.6216 39.1408 32.7218 38.8167 32.7218L38.8193 32.7244ZM29.2159 27.0361C29.4662 27.0361 29.7191 27.0968 29.9457 27.2181L38.5137 31.7276C38.7376 31.8463 38.9932 31.8278 39.1961 31.6775C39.4016 31.5298 39.4964 31.2925 39.4543 31.0419L37.8181 21.4928C37.7312 20.9812 37.8998 20.4617 38.2687 20.1004L45.2005 13.3361C45.3823 13.1594 45.4429 12.9115 45.3639 12.6715C45.2848 12.4315 45.0899 12.2654 44.8396 12.2285L35.2599 10.8361C34.7487 10.7622 34.3061 10.4405 34.0769 9.97635L29.7982 1.28429C29.6875 1.0575 29.4688 0.923004 29.2159 0.923004C28.963 0.923004 28.7469 1.0575 28.6336 1.28429L24.3496 9.97371C24.1204 10.4379 23.6778 10.7596 23.1666 10.8334L13.5869 12.2258C13.3366 12.2628 13.1417 12.4263 13.0626 12.6689C12.9836 12.9089 13.0468 13.1594 13.226 13.3334L20.1578 20.0977C20.5293 20.459 20.6979 20.9786 20.6084 21.4902L18.9722 31.0393C18.9301 31.2898 19.0249 31.5272 19.2304 31.6749C19.4359 31.8225 19.6915 31.841 19.9128 31.725L28.4808 27.2154C28.71 27.0941 28.9603 27.0335 29.2106 27.0335L29.2159 27.0361Z" fill="white"/>
</g>
<defs>
<clipPath id="clip0_45_3785">
<rect width="58" height="61" fill="white"/>
</clipPath>
</defs>
</svg>
