<svg width="68" height="31" viewBox="0 0 68 31" fill="none" xmlns="http://www.w3.org/2000/svg">
<g clip-path="url(#clip0_45_3831)">
<path d="M20.46 27.9097C20.3798 27.9097 20.2968 27.8889 20.2219 27.8473C19.9998 27.72 19.9249 27.4393 20.0587 27.2236C21.9477 24.1282 25.4206 22.3272 29.1182 22.5195L40.5376 23.1199C42.4346 23.2186 44.3182 22.6754 45.8487 21.5865L64.9684 8.0045C65.5303 7.63545 65.9985 7.18844 66.3704 6.66345C67.5503 5.00794 67.0607 3.17829 66.0493 2.09974C65.153 1.14333 63.454 0.384446 61.6079 1.38763C61.5436 1.42142 61.4821 1.4578 61.4179 1.49679L46.7771 10.3097C46.5577 10.4423 46.2687 10.3773 46.1323 10.1616C45.9958 9.9485 46.0627 9.66781 46.2848 9.53527L60.9256 0.722307C61.0005 0.678125 61.0754 0.633943 61.1503 0.59236C63.0634 -0.449809 65.2574 -0.0989541 66.7423 1.48639C68.0025 2.83264 68.6152 5.11449 67.141 7.18064C66.7022 7.79659 66.151 8.32417 65.5062 8.74519L46.3998 22.3168C44.6928 23.5279 42.5951 24.1334 40.4841 24.0243L29.0647 23.4239C25.7149 23.2498 22.5711 24.8793 20.8614 27.6836C20.7731 27.8265 20.6179 27.9071 20.4574 27.9071L20.46 27.9097Z" fill="white"/>
<path d="M4.94353 15.7466C4.83651 15.7466 4.72949 15.7129 4.64387 15.6401C4.44588 15.479 4.41912 15.1905 4.58768 14.9982L12.7241 5.59004C14.8218 3.23282 17.9736 2.02431 21.1549 2.35438C23.6807 2.61427 25.971 3.79938 27.6057 5.6888L28.1195 6.28396C28.6037 6.84273 29.3128 7.16499 30.0646 7.16499H43.0653C45.2325 7.16499 46.9984 8.87768 46.9984 10.9854C46.9984 13.0931 45.2352 14.8058 43.0653 14.8058H28.6626C28.4031 14.8058 28.1944 14.6031 28.1944 14.351C28.1944 14.0989 28.4031 13.8962 28.6626 13.8962H43.0653C44.7161 13.8962 46.0619 12.5916 46.0619 10.9854C46.0619 9.37928 44.7188 8.07462 43.0653 8.07462H30.0646C29.0345 8.07462 28.0633 7.6354 27.4024 6.86871L26.8887 6.27356C25.4118 4.56606 23.3409 3.49531 21.0559 3.2588C18.177 2.96253 15.3302 4.05408 13.4358 6.18L5.30206 15.5829C5.20842 15.6895 5.07731 15.7441 4.94353 15.7441V15.7466Z" fill="white"/>
<path d="M20.758 30.9998C20.659 30.9998 20.56 30.9686 20.4743 30.9062C20.2683 30.7555 20.2282 30.4696 20.3834 30.2695C21.1031 29.3469 20.9238 28.0162 19.9874 27.3041L3.94725 15.0891C3.4817 14.7331 2.89842 14.5772 2.30979 14.6525C1.72116 14.7279 1.19942 15.0216 0.840894 15.479C0.68571 15.6791 0.391396 15.7181 0.185376 15.5673C-0.0206442 15.4166 -0.060778 15.1307 0.094406 14.9306C0.605443 14.2757 1.34926 13.8573 2.18939 13.7507C3.02685 13.6467 3.85628 13.8676 4.5225 14.3744L20.5653 26.5894C21.9031 27.6082 22.1546 29.5054 21.1299 30.8204C21.0389 30.9374 20.8971 30.9998 20.7553 30.9998H20.758Z" fill="white"/>
</g>
<defs>
<clipPath id="clip0_45_3831">
<rect width="68" height="31" fill="white"/>
</clipPath>
</defs>
</svg>
