<svg width="83" height="52" viewBox="0 0 83 52" fill="none" xmlns="http://www.w3.org/2000/svg">
<g clip-path="url(#clip0_45_3771)">
<path d="M26.0938 46.0587C24.993 46.0587 23.9599 45.6312 23.1819 44.8532C22.404 44.0752 21.9766 43.042 21.9766 41.9411C21.9766 40.8402 22.404 39.807 23.1819 39.029L27.5575 34.6531C29.1625 33.0479 31.7762 33.0479 33.3843 34.6531C34.9925 36.2583 34.9894 38.8722 33.3843 40.4804L29.0088 44.8532C28.2308 45.6312 27.1977 46.0587 26.0969 46.0587H26.0938ZM30.4694 34.524C29.6914 34.524 28.9104 34.8192 28.3169 35.4127L23.9414 39.7885C23.3664 40.3636 23.0497 41.1262 23.0497 41.9411C23.0497 42.756 23.3664 43.5186 23.9414 44.0937C24.5164 44.6687 25.279 44.9855 26.0938 44.9855C26.9087 44.9855 27.6712 44.6687 28.2462 44.0937L32.6218 39.7209C33.8087 38.5339 33.8087 36.6027 32.6218 35.4157C32.0283 34.8223 31.2504 34.527 30.4694 34.527V34.524Z" fill="white"/>
<path d="M37.5895 51.9996C36.4887 51.9996 35.4525 51.5722 34.6745 50.7942L33.5553 49.6718C33.3462 49.4626 33.3462 49.1213 33.5553 48.9091C33.7643 48.6969 34.1057 48.7 34.3147 48.9091L35.434 50.0315C36.009 50.6066 36.7716 50.9233 37.5864 50.9233C38.4013 50.9233 39.1607 50.6066 39.7357 50.0315C40.8212 48.946 40.9288 47.2209 39.9879 46.0124C39.9817 46.0062 39.9787 46.0001 39.9725 45.9939C39.8987 45.8986 39.8218 45.8125 39.7327 45.7233L37.9093 43.8998C37.7002 43.6907 37.7002 43.3493 37.9093 43.1402C38.1184 42.9311 38.4597 42.9311 38.6688 43.1402L40.4922 44.9638C40.6059 45.0775 40.7105 45.1944 40.8089 45.3174C40.812 45.3236 40.8181 45.3297 40.8212 45.3328C42.1095 46.9687 41.9681 49.315 40.4922 50.7911C39.7142 51.5691 38.6811 51.9965 37.5803 51.9965L37.5895 51.9996Z" fill="white"/>
<path d="M46.5363 50.8528C45.4355 50.8528 44.3993 50.4222 43.6183 49.6442L37.899 43.9215C37.6899 43.7124 37.6899 43.371 37.899 43.1619C38.1081 42.9528 38.4494 42.9528 38.6585 43.1619L44.3778 48.8847C44.9558 49.4628 45.7215 49.7796 46.5332 49.7796C47.345 49.7796 48.1076 49.4628 48.6826 48.8847C49.2576 48.3097 49.5743 47.547 49.5743 46.7352C49.5743 45.9203 49.2576 45.1546 48.6826 44.5796L42.4652 38.3617C42.2561 38.1526 42.2561 37.8112 42.4652 37.6021C42.6743 37.393 43.0156 37.393 43.2247 37.6021L49.4421 43.82C50.22 44.598 50.6505 45.6343 50.6505 46.7352C50.6505 47.8361 50.22 48.8693 49.4421 49.6442C48.6641 50.4222 47.6279 50.8528 46.5302 50.8528H46.5363Z" fill="white"/>
<path d="M54.168 48.3068C53.0703 48.3068 52.0372 47.8763 51.2561 47.0983L42.4928 38.3373C42.2837 38.1282 42.2837 37.7868 42.4928 37.5777C42.7018 37.3686 43.0432 37.3686 43.2553 37.5777L52.0187 46.3387C52.5968 46.9168 53.3594 47.2336 54.168 47.2336C54.9767 47.2336 55.7455 46.9168 56.3205 46.3387C56.837 45.8221 57.1199 45.0779 57.123 44.2353C57.123 43.2851 56.754 42.3441 56.1329 41.723C55.9238 41.5139 55.9238 41.1725 56.1329 40.9634C56.342 40.7543 56.6833 40.7543 56.8924 40.9634C57.7226 41.7937 58.1992 42.9868 58.1992 44.2353C58.1992 45.3639 57.8025 46.3818 57.083 47.0983C56.302 47.8793 55.2688 48.3068 54.168 48.3068Z" fill="white"/>
<path d="M62.1063 45.9174C61.0608 45.9174 60.0154 45.5268 59.2128 44.7427L47.1194 32.9035C46.9072 32.6944 46.9041 32.3562 47.1102 32.1409C47.3192 31.9287 47.6575 31.9257 47.8696 32.1317L59.9631 43.9708C61.1562 45.1394 63.0872 45.1271 64.2649 43.9493C64.8429 43.3712 65.1627 42.5993 65.1596 41.7814C65.1596 40.9603 64.8368 40.1915 64.2556 39.6165L51.3473 26.8118C51.2336 26.698 51.0798 26.6273 50.9199 26.615L49.6777 26.5135C45.7634 26.1906 42.4056 23.5214 41.191 19.8128L37.7871 20.0619C36.4711 20.1572 35.3395 20.9752 34.8322 22.196L34.414 23.2016C33.8298 24.6131 32.5783 25.6002 31.0716 25.8493C29.7986 26.0584 28.5072 25.6986 27.5232 24.8621C26.5423 24.0288 25.9766 22.8111 25.9766 21.5195V19.3239C25.9766 17.8017 26.7453 16.4118 28.0367 15.6061L33.962 11.9006C34.4786 11.5777 35.072 11.4086 35.6809 11.4086L66.8324 10.7751C67.1399 10.7597 67.3766 11.0057 67.3828 11.3009C67.3889 11.5992 67.1522 11.8452 66.857 11.8514L35.6932 12.4849C35.275 12.4849 34.8783 12.5986 34.5339 12.8139L28.6087 16.5194C27.6339 17.1283 27.0528 18.1769 27.0528 19.3239V21.5195C27.0528 22.4912 27.4771 23.4107 28.2181 24.0411C28.9592 24.6715 29.9339 24.9421 30.8964 24.7853C32.0341 24.5977 32.975 23.8535 33.4178 22.7895L33.8359 21.784C34.5001 20.188 35.9822 19.1179 37.7072 18.9918L41.5416 18.7119C41.7968 18.6935 42.0305 18.8565 42.0981 19.1056C43.0698 22.5989 46.1539 25.1451 49.7668 25.4433L51.0091 25.5448C51.4211 25.5786 51.8116 25.7601 52.1068 26.0491L65.0151 38.8539C65.8023 39.6349 66.2359 40.6743 66.2389 41.7814C66.2389 42.8884 65.8115 43.9309 65.0274 44.715C64.2249 45.5176 63.1641 45.9205 62.1032 45.9205L62.1063 45.9174Z" fill="white"/>
<path d="M21.0298 40.9912C19.9751 40.9912 18.9204 40.5883 18.1179 39.7857C16.5128 38.1805 16.5128 35.5667 18.1179 33.9584L21.3403 30.7357C22.1183 29.9577 23.1514 29.5303 24.2522 29.5303C25.353 29.5303 26.3862 29.9577 27.1641 30.7357C27.9421 31.5137 28.3695 32.5469 28.3695 33.6478C28.3695 34.7487 27.9421 35.782 27.1641 36.56L23.9417 39.7827C23.1391 40.5853 22.0845 40.9881 21.0298 40.9881V40.9912ZM18.8774 39.0262C20.0643 40.2132 21.9953 40.2132 23.1822 39.0262L26.4047 35.8035C26.9797 35.2284 27.2964 34.4658 27.2964 33.6509C27.2964 32.836 26.9797 32.0734 26.4047 31.4983C25.8297 30.9233 25.0671 30.6066 24.2522 30.6066C23.4374 30.6066 22.6748 30.9233 22.0998 31.4983L18.8774 34.721C17.6905 35.908 17.6905 37.8392 18.8774 39.0262Z" fill="white"/>
<path d="M15.9907 35.9484C14.936 35.9484 13.8814 35.5455 13.0788 34.7429C11.4737 33.1377 11.4737 30.5239 13.0788 28.9156L13.8475 28.1468C14.6255 27.3688 15.6586 26.9414 16.7594 26.9414C17.8602 26.9414 18.8934 27.3688 19.6713 28.1468C20.4493 28.9248 20.8767 29.9581 20.8767 31.059C20.8767 32.1599 20.4493 33.1931 19.6713 33.9711L18.9026 34.7399C18.1001 35.5425 17.0454 35.9453 15.9907 35.9453V35.9484ZM16.7594 28.0208C15.9477 28.0208 15.182 28.3375 14.607 28.9125L13.8383 29.6813C12.6514 30.8683 12.6514 32.7995 13.8383 33.9865C15.0252 35.1735 16.9562 35.1735 18.1431 33.9865L18.9118 33.2177C19.4868 32.6426 19.8036 31.88 19.8036 31.0651C19.8036 30.2502 19.4868 29.4876 18.9118 28.9125C18.3368 28.3375 17.5743 28.0208 16.7594 28.0208Z" fill="white"/>
<path d="M31.1626 51.1203C30.1079 51.1203 29.0532 50.7174 28.2507 49.9148C26.6456 48.3096 26.6456 45.6958 28.2507 44.0875L29.0194 43.3187C29.7973 42.5407 30.8305 42.1133 31.9313 42.1133C33.0321 42.1133 34.0653 42.5407 34.8432 43.3187C35.6212 44.0967 36.0486 45.13 36.0486 46.2308C36.0486 47.3317 35.6212 48.365 34.8432 49.143L34.0745 49.9117C33.2719 50.7143 32.2173 51.1172 31.1626 51.1172V51.1203ZM31.9313 43.1926C31.1195 43.1926 30.3539 43.5094 29.7789 44.0844L29.0102 44.8532C27.8233 46.0402 27.8233 47.9714 29.0102 49.1583C30.1971 50.3453 32.1281 50.3453 33.315 49.1583L34.0837 48.3896C34.6587 47.8145 34.9754 47.0488 34.9754 46.237C34.9754 45.4252 34.6587 44.6595 34.0837 44.0844C33.5087 43.5094 32.7461 43.1926 31.9313 43.1926Z" fill="white"/>
<path d="M14.2213 29.0656C14.003 29.0656 13.797 28.9303 13.7171 28.712L13.2435 27.4174C12.6285 25.7353 11.5308 24.3084 10.0641 23.2875L9.62132 22.9831C9.47065 22.8785 9.38763 22.7063 9.39071 22.531C9.39378 22.2358 9.63362 21.999 9.92881 21.999C10.058 21.999 10.1779 22.0452 10.2732 22.122L10.6791 22.4019C12.3272 23.5519 13.5633 25.1572 14.2552 27.0453L14.7287 28.3399C14.8302 28.6197 14.6856 28.9272 14.4089 29.0287C14.3474 29.0502 14.2859 29.0625 14.2244 29.0625L14.2213 29.0656Z" fill="white"/>
<path d="M33.6384 12.4818C31.0831 12.4818 28.5679 12.039 26.1664 11.1688L20.7147 9.19454C20.4349 9.09306 20.2903 8.78555 20.3918 8.50572C20.4933 8.22588 20.8008 8.08135 21.0806 8.18283L26.5323 10.157C28.817 10.9842 31.2061 11.4055 33.6384 11.4055H34.9329C35.2311 11.4055 35.471 11.6454 35.471 11.9437C35.471 12.242 35.2311 12.4818 34.9329 12.4818H33.6537C33.6537 12.4818 33.6445 12.4818 33.6384 12.4818Z" fill="white"/>
<path d="M75.8822 30.1733C74.1757 30.1733 72.5737 29.1093 71.971 27.4118L66.3317 11.4859C65.5691 9.33329 66.7007 6.95931 68.8531 6.19669L74.231 4.2932C74.5108 4.19479 74.8183 4.3424 74.9167 4.62223C75.0151 4.90207 74.8706 5.20958 74.5877 5.30798L69.2098 7.21147C67.6139 7.77729 66.7775 9.53317 67.3433 11.1261L72.9826 27.052C73.5484 28.648 75.3042 29.4844 76.8969 28.9186L82.2749 27.0151C82.5578 26.9167 82.8622 27.0643 82.9606 27.3442C83.059 27.624 82.9145 27.9315 82.6316 28.0299L77.2536 29.9334C76.7985 30.0933 76.3312 30.1702 75.873 30.1702L75.8822 30.1733Z" fill="white"/>
<path d="M7.23855 24.2782C6.30687 24.2782 5.40901 23.9677 4.66796 23.3772L0.203248 19.8286C-0.0304419 19.6441 -0.0673404 19.3058 0.117152 19.0721C0.301644 18.8384 0.63988 18.8015 0.87357 18.986L5.33828 22.5377C5.98093 23.0482 6.78347 23.2788 7.59524 23.1835C8.41008 23.0913 9.13882 22.6853 9.64925 22.0457L20.1622 8.82278C21.2138 7.49741 20.9955 5.56624 19.6703 4.51148L15.2055 0.959739C14.9719 0.775233 14.935 0.436972 15.1194 0.203264C15.3039 -0.0304442 15.6422 -0.0673454 15.8759 0.117161L20.3406 3.66891C22.1302 5.0896 22.4284 7.70344 21.0048 9.49315L10.4918 22.7161C9.803 23.5833 8.81904 24.1276 7.71823 24.2536C7.55834 24.2721 7.39845 24.2813 7.24163 24.2813L7.23855 24.2782Z" fill="white"/>
<path d="M60.7264 35.656C60.5358 35.656 60.3513 35.5545 60.2529 35.3762C60.1115 35.1148 60.2068 34.7888 60.4681 34.6474L72.5647 28.0605C72.826 27.9191 73.152 28.0144 73.2934 28.2758C73.4349 28.5372 73.3395 28.8631 73.0782 29.0046L60.9816 35.5914C60.8986 35.6345 60.8125 35.656 60.7234 35.656H60.7264Z" fill="white"/>
</g>
<defs>
<clipPath id="clip0_45_3771">
<rect width="83" height="52" fill="white"/>
</clipPath>
</defs>
</svg>
