<svg width="48" height="48" viewBox="0 0 48 48" fill="none" xmlns="http://www.w3.org/2000/svg">
<rect y="0.728516" width="47.5502" height="46.6848" rx="23.3424" fill="white"/>
<path d="M28.9154 29.0146C28.5784 29.6045 28.2132 30.1663 27.848 30.7C30.2075 31.2337 31.612 32.1607 31.612 32.8629C31.612 33.9022 28.4941 35.4752 23.7751 35.4752C19.0561 35.4752 15.9382 33.9022 15.9382 32.8629C15.9382 32.1607 17.3426 31.2618 19.7021 30.7C19.337 30.1663 18.9718 29.6045 18.6347 29.0146C15.9382 29.7169 14 30.9809 14 32.8629C14 35.8404 18.9156 37.4134 23.7751 37.4134C28.6345 37.4134 33.5502 35.8404 33.5502 32.8629C33.5502 30.9809 31.612 29.7169 28.9154 29.0146Z" fill="black"/>
<path d="M24.6485 32.0764C26.6429 29.127 31.418 21.7395 31.418 18.3969C31.418 14.1554 27.9912 10.7285 23.7778 10.7285C19.5644 10.7285 16.1094 14.1554 16.1094 18.3969C16.1094 21.7395 20.9126 29.127 22.907 32.0764C23.3283 32.6663 24.2272 32.6663 24.6485 32.0764ZM20.2104 18.3969C20.2104 16.4306 21.8115 14.8296 23.7778 14.8296C25.744 14.8296 27.3451 16.4306 27.3451 18.3969C27.3451 20.3631 25.744 21.9361 23.7778 21.9361C21.8115 21.9361 20.2104 20.3351 20.2104 18.3969Z" fill="black"/>
</svg>
