<svg width="407" height="282" viewBox="0 0 407 282" fill="none" xmlns="http://www.w3.org/2000/svg">
<path opacity="0.4" d="M7.55495 97.816C0.927955 61.9559 -2.38554 44.0259 2.88529 30.681C7.50141 18.9938 16.3489 9.47322 27.6668 4.01402C40.5901 -2.21949 58.7146 -0.22731 94.9636 3.75705L400.799 37.3734C402.815 37.595 403.823 37.7057 404.583 38.1699C405.254 38.5788 405.789 39.1757 406.122 39.8865C406.5 40.6933 406.5 41.7072 406.5 43.7351V249.5C406.5 260.701 406.5 266.302 404.32 270.58C402.403 274.343 399.343 277.403 395.58 279.32C391.302 281.5 385.701 281.5 374.5 281.5H46.8257C44.9309 281.5 43.9834 281.5 43.2106 281.158C42.5292 280.857 41.9455 280.371 41.5253 279.756C41.0487 279.058 40.8765 278.126 40.5322 276.263L7.55495 97.816Z" fill="#522D6E"/>
</svg>
